<svg xmlns="http://www.w3.org/2000/svg" width="23.498" height="23.275" viewBox="0 0 23.498 23.275"><g id="list" opacity=".996" style="isolation:isolate"><path id="Path_1545" fill="#202e2e" d="M23.373,6.007a.908.908,0,0,0-.6-.426L9.462,2.373a.9.9,0,0,0-1.023.576L3.365,15.839l1.694.617C4.547,17.6,5.2,17.878.1,15.986c-.729,4.619,2.82,5.73,2.82,5.73l7.508,3.409a5.819,5.819,0,0,0,2.448.5c3.436-.081,4.643-2.576,6.156-6.573,2.186-5.776,4.4-12.249,4.426-12.318A.892.892,0,0,0,23.373,6.007Z" data-name="Path 1545" transform="translate(0 -2.356)"/><g id="Group_3547" data-name="Group 3547"><path id="Path_1546" fill="#fff" d="M272.614,128.946a.9.9,0,1,0,.475-1.739L269.183,126a.9.9,0,1,0-.475,1.739Z" data-name="Path 1546" transform="translate(-255.309 -120.097)"/><path id="Path_1547" fill="#fff" d="M234.858,203.616a.9.9,0,0,0,.57,1.141l3.886,1.389a.894.894,0,0,0,.281.046.9.9,0,0,0,.29-1.756L236,203.048A.9.9,0,0,0,234.858,203.616Z" data-name="Path 1547" transform="translate(-223.657 -193.47)"/><path id="Path_1548" fill="#fff" d="M204.868,282.252a.9.9,0,1,0-.561,1.711l3.894,1.383a.868.868,0,0,0,.282.045.9.9,0,0,0,.28-1.757Z" data-name="Path 1548" transform="translate(-194.009 -268.91)"/><path id="Path_1549" fill="#fff" d="M205.5,104.517a.972.972,0,1,1-1,.972A.986.986,0,0,1,205.5,104.517Z" data-name="Path 1549" transform="translate(-194.785 -99.664)"/><path id="Path_1550" fill="#fff" d="M175.731,180.572a.972.972,0,1,1-1,.971A.986.986,0,0,1,175.731,180.572Z" data-name="Path 1550" transform="translate(-166.43 -172.106)"/><path id="Path_1551" fill="#fff" d="M143.981,259.039a.972.972,0,1,1-1,.973A.987.987,0,0,1,143.981,259.039Z" data-name="Path 1551" transform="translate(-136.189 -246.845)"/></g></g></svg>